<svg width="274" height="77" viewBox="0 0 274 77" fill="none" xmlns="http://www.w3.org/2000/svg">
<path d="M52 19.622V5.2312C52 3.02206 53.7909 1.2312 56 1.2312H208C210.209 1.2312 212 3.02206 212 5.2312V19.7283" stroke="white" stroke-width="2"/>
<path d="M52 56.8289V71.2197C52 73.4289 53.7909 75.2197 56 75.2197H208C210.209 75.2197 212 73.4289 212 71.2197V65.9712V56.7226" stroke="white" stroke-width="2"/>
<path d="M6.35082 37.666C6.48948 37.4753 6.66282 37.328 6.87082 37.224L14.1248 34.078C14.2462 34.0087 14.4022 33.974 14.5928 33.974C14.6622 33.9913 14.7315 34.0087 14.8008 34.026C14.8702 34.0433 14.9308 34.078 14.9828 34.13C15.2428 34.286 15.3728 34.5287 15.3728 34.858V36.912C15.3728 37.4493 15.1475 37.8133 14.6968 38.004C14.4022 38.1253 14.1248 38.2467 13.8648 38.368C13.6048 38.472 13.3535 38.576 13.1108 38.68C12.7122 38.836 12.3482 38.9833 12.0188 39.122C11.7068 39.2607 11.5508 39.3387 11.5508 39.356L14.6968 40.682C15.1475 40.8727 15.3728 41.2367 15.3728 41.774V43.828C15.3728 44.1573 15.2428 44.4 14.9828 44.556C14.9308 44.608 14.8702 44.6427 14.8008 44.66C14.7315 44.6773 14.6622 44.6947 14.5928 44.712C14.4022 44.712 14.2462 44.6773 14.1248 44.608L10.5108 43.022L8.01482 41.93L6.87082 41.436C6.66282 41.3493 6.48948 41.2107 6.35082 41.02C6.21215 40.812 6.12548 40.5607 6.09082 40.266C6.07348 39.9713 6.06482 39.6593 6.06482 39.33C6.06482 39.018 6.07348 38.7147 6.09082 38.42C6.12548 38.1253 6.21215 37.874 6.35082 37.666ZM35.9435 28.8C36.1862 28.8 36.3768 28.852 36.5155 28.956C36.6542 29.0427 36.7668 29.1293 36.8535 29.216C36.8708 29.216 36.8882 29.2247 36.9055 29.242L50.0615 41.592V29.814C50.0615 29.5193 50.1568 29.2767 50.3475 29.086C50.5382 28.8953 50.7808 28.8 51.0755 28.8H53.3635C53.6582 28.8 53.9008 28.8953 54.0915 29.086C54.2995 29.2767 54.4035 29.5193 54.4035 29.814V45.986C54.4035 46.1073 54.3862 46.2373 54.3515 46.376C54.3168 46.4973 54.2388 46.61 54.1175 46.714C54.0135 46.8353 53.8922 46.9133 53.7535 46.948C53.6148 46.9827 53.4848 47 53.3635 47H50.5295C50.2868 47 50.0962 46.9567 49.9575 46.87C49.8188 46.766 49.7062 46.6793 49.6195 46.61L49.5675 46.558L36.3855 34.208V45.986C36.3855 46.09 36.3682 46.2113 36.3335 46.35C36.2988 46.4713 36.2208 46.5927 36.0995 46.714C35.9955 46.8353 35.8742 46.9133 35.7355 46.948C35.6142 46.9827 35.4928 47 35.3715 47H33.0835C32.7888 47 32.5462 46.9047 32.3555 46.714C32.1648 46.5233 32.0695 46.2807 32.0695 45.986V29.814C32.0695 29.5193 32.1648 29.2767 32.3555 29.086C32.5462 28.8953 32.7888 28.8 33.0835 28.8H35.9435ZM57.4782 29.294C57.5475 29.1553 57.6515 29.0427 57.7902 28.956C57.9635 28.852 58.1455 28.8 58.3362 28.8H61.0142C61.0835 28.8 61.2655 28.8433 61.5602 28.93C61.6989 29.0167 61.8115 29.1207 61.8982 29.242C61.9849 29.346 62.0542 29.4327 62.1062 29.502L70.2962 42.19L74.4042 35.846C74.9242 35.0487 75.4269 34.2773 75.9122 33.532C76.3975 32.7693 76.8309 32.0933 77.2122 31.504C77.6109 30.8973 77.9229 30.4207 78.1482 30.074C78.3909 29.71 78.5122 29.528 78.5122 29.528C78.6509 29.32 78.7982 29.1467 78.9542 29.008C79.1102 28.8693 79.3182 28.8 79.5782 28.8H82.2562C82.4295 28.8 82.6115 28.852 82.8022 28.956C82.9409 29.0427 83.0449 29.1553 83.1142 29.294C83.1835 29.4153 83.2182 29.5627 83.2182 29.736C83.2009 29.84 83.1749 29.9353 83.1402 30.022C83.1055 30.1087 83.0709 30.1953 83.0362 30.282L77.8362 38.29L72.6362 46.298C72.5322 46.506 72.3849 46.6793 72.1942 46.818C72.0035 46.9393 71.7869 47 71.5442 47H69.0482C68.8055 47 68.5975 46.9393 68.4242 46.818C68.2682 46.6967 68.1209 46.532 67.9822 46.324L57.5562 30.282C57.5215 30.1953 57.4782 30.1087 57.4262 30.022C57.3915 29.9353 57.3742 29.84 57.3742 29.736C57.3742 29.5627 57.4089 29.4153 57.4782 29.294ZM86.2636 44.296C86.2636 44.1053 86.2723 44.0013 86.2896 43.984C86.2896 43.7587 86.359 43.5507 86.4976 43.36C86.619 43.2387 86.7316 43.152 86.8356 43.1C86.9396 43.048 87.0783 43.022 87.2516 43.022H106.232C106.457 43.022 106.665 43.0827 106.856 43.204C107.064 43.3253 107.185 43.5073 107.22 43.75C107.237 43.7673 107.246 43.8627 107.246 44.036V45.986C107.246 46.09 107.228 46.2113 107.194 46.35C107.159 46.4713 107.09 46.5927 106.986 46.714L106.908 46.792C106.804 46.8787 106.691 46.9393 106.57 46.974C106.448 46.9913 106.336 47 106.232 47H87.2776C87.035 47 86.827 46.9393 86.6536 46.818C86.6363 46.8007 86.619 46.792 86.6016 46.792C86.5843 46.7747 86.567 46.7487 86.5496 46.714C86.4456 46.61 86.3676 46.4973 86.3156 46.376C86.281 46.2373 86.2636 46.116 86.2636 46.012V44.296ZM86.2896 29.736C86.307 29.6493 86.3243 29.554 86.3416 29.45C86.3763 29.3287 86.437 29.2247 86.5236 29.138L86.6536 29.034C86.775 28.93 86.905 28.8607 87.0436 28.826C87.1823 28.7913 87.3036 28.7827 87.4076 28.8H106.128C106.318 28.8 106.474 28.8347 106.596 28.904C106.734 28.9907 106.838 29.0773 106.908 29.164C106.994 29.2333 107.055 29.3547 107.09 29.528C107.107 29.6147 107.116 29.684 107.116 29.736C107.133 29.7707 107.142 29.7967 107.142 29.814V31.764C107.142 31.8853 107.124 32.0153 107.09 32.154C107.055 32.2753 106.977 32.3967 106.856 32.518C106.734 32.622 106.604 32.6913 106.466 32.726C106.344 32.7607 106.232 32.778 106.128 32.778H87.2776C87.191 32.778 87.087 32.7693 86.9656 32.752C86.8616 32.7347 86.7663 32.6827 86.6796 32.596C86.645 32.5787 86.619 32.57 86.6016 32.57C86.6016 32.5527 86.5843 32.5353 86.5496 32.518C86.4283 32.3967 86.3503 32.2753 86.3156 32.154C86.281 32.0153 86.2636 31.894 86.2636 31.79V30.048C86.2636 29.996 86.2636 29.944 86.2636 29.892C86.281 29.84 86.2896 29.788 86.2896 29.736ZM86.2636 37.12L86.3156 36.808C86.3156 36.6173 86.3936 36.4267 86.5496 36.236L86.6796 36.132C86.801 36.028 86.931 35.9673 87.0696 35.95C87.2083 35.9153 87.3383 35.9067 87.4596 35.924H105.894C105.98 35.924 106.076 35.9327 106.18 35.95C106.301 35.9673 106.405 36.0193 106.492 36.106C106.578 36.1407 106.656 36.2187 106.726 36.34C106.795 36.4613 106.838 36.5653 106.856 36.652C106.873 36.6693 106.882 36.7647 106.882 36.938V38.862C106.882 39.174 106.786 39.4253 106.596 39.616C106.422 39.7893 106.18 39.876 105.868 39.876H87.5896H87.2776C87.191 39.876 87.087 39.8673 86.9656 39.85C86.8616 39.8327 86.7576 39.7807 86.6536 39.694C86.6363 39.6767 86.619 39.668 86.6016 39.668C86.5843 39.6507 86.567 39.6247 86.5496 39.59C86.3763 39.4513 86.281 39.2693 86.2636 39.044V37.12ZM127.814 28.8C129.444 28.8 130.683 29.2333 131.532 30.1C132.399 30.9493 132.832 32.1887 132.832 33.818V37.432C132.832 38.2813 132.728 39.0007 132.52 39.59C132.33 40.162 132.026 40.6387 131.61 41.02C131.212 41.4013 130.709 41.696 130.102 41.904C129.496 42.112 128.785 42.2593 127.97 42.346C127.918 42.346 127.884 42.372 127.866 42.424C127.849 42.4587 127.858 42.4933 127.892 42.528C128.17 42.788 128.516 43.1173 128.932 43.516C129.348 43.8973 129.773 44.296 130.206 44.712C130.64 45.128 131.047 45.5267 131.428 45.908C131.827 46.2893 132.139 46.5927 132.364 46.818C132.399 46.8527 132.399 46.896 132.364 46.948C132.347 46.9827 132.321 47 132.286 47H126.384C126.332 47 126.306 46.9913 126.306 46.974C125.561 46.246 124.764 45.4747 123.914 44.66C123.065 43.828 122.242 43.0307 121.444 42.268C120.647 41.488 119.91 40.7773 119.234 40.136C118.576 39.4947 118.056 38.992 117.674 38.628C117.64 38.5933 117.631 38.5587 117.648 38.524C117.666 38.472 117.7 38.446 117.752 38.446H127.164C127.684 38.446 128.031 38.3593 128.204 38.186C128.395 38.0127 128.49 37.666 128.49 37.146V34.078C128.49 33.766 128.464 33.5407 128.412 33.402C128.36 33.246 128.3 33.1333 128.23 33.064C128.161 32.9773 128.048 32.908 127.892 32.856C127.736 32.804 127.494 32.778 127.164 32.778H111.33C111.261 32.778 111.226 32.7433 111.226 32.674V29.814C111.226 29.5193 111.322 29.2767 111.512 29.086C111.703 28.8953 111.946 28.8 112.24 28.8H127.814ZM156.049 28.618C156.587 28.618 157.089 28.722 157.557 28.93C158.025 29.1207 158.433 29.3893 158.779 29.736C159.126 30.0827 159.395 30.49 159.585 30.958C159.793 31.426 159.897 31.9287 159.897 32.466V32.492C159.897 32.5613 159.863 32.596 159.793 32.596H143.205C142.841 32.596 142.555 32.6307 142.347 32.7C142.139 32.7693 141.992 32.8473 141.905 32.934C141.819 33.0207 141.741 33.1507 141.671 33.324C141.619 33.48 141.593 33.7053 141.593 34C141.593 34.5373 141.706 34.9187 141.931 35.144C142.035 35.2653 142.191 35.3693 142.399 35.456C142.607 35.5253 142.911 35.5773 143.309 35.612L154.255 36.236C155.989 36.3227 157.358 36.808 158.363 37.692C159.386 38.5587 159.897 39.8933 159.897 41.696C159.897 43.568 159.395 44.92 158.389 45.752C157.401 46.584 156.006 47 154.203 47H141.229C140.709 47 140.215 46.9047 139.747 46.714C139.279 46.506 138.863 46.2373 138.499 45.908C138.153 45.5613 137.875 45.154 137.667 44.686C137.459 44.218 137.347 43.724 137.329 43.204C137.329 43.1173 137.364 43.074 137.433 43.074H138.395C138.829 43.074 139.383 43.074 140.059 43.074C140.753 43.074 141.507 43.074 142.321 43.074C143.136 43.0567 143.985 43.048 144.869 43.048C145.771 43.048 146.655 43.048 147.521 43.048C148.561 43.048 149.61 43.048 150.667 43.048C151.742 43.048 152.851 43.0393 153.995 43.022C154.55 43.022 154.957 42.9353 155.217 42.762C155.477 42.5713 155.607 42.19 155.607 41.618C155.607 41.0807 155.503 40.6907 155.295 40.448C155.191 40.344 155.035 40.2487 154.827 40.162C154.619 40.0753 154.316 40.0233 153.917 40.006L142.971 39.382C141.221 39.278 139.843 38.7927 138.837 37.926C137.832 37.0593 137.329 35.716 137.329 33.896C137.329 32.0413 137.832 30.698 138.837 29.866C139.843 29.034 141.238 28.618 143.023 28.618H156.049ZM184.525 28.8C184.646 28.8 184.767 28.826 184.889 28.878C185.027 28.9127 185.157 28.982 185.279 29.086C185.469 29.3287 185.565 29.5713 185.565 29.814V31.764C185.565 32.076 185.461 32.3273 185.253 32.518C185.062 32.6913 184.819 32.778 184.525 32.778H176.413V45.986C176.413 46.09 176.395 46.2113 176.361 46.35C176.326 46.4713 176.248 46.5927 176.127 46.714C176.023 46.8353 175.901 46.9133 175.763 46.948C175.641 46.9827 175.52 47 175.399 47H173.163C173.041 47 172.911 46.9827 172.773 46.948C172.651 46.9133 172.539 46.8353 172.435 46.714C172.313 46.5927 172.235 46.4713 172.201 46.35C172.166 46.2113 172.149 46.09 172.149 45.986V32.778H164.011C163.907 32.778 163.785 32.7607 163.647 32.726C163.525 32.6913 163.404 32.622 163.283 32.518C163.161 32.3967 163.083 32.2753 163.049 32.154C163.014 32.0153 162.997 31.8853 162.997 31.764V29.814C162.997 29.5193 163.092 29.2767 163.283 29.086C163.473 28.8953 163.716 28.8 164.011 28.8H184.525ZM181.313 46.064C181.313 45.96 181.33 45.8647 181.365 45.778C181.417 45.6913 181.46 45.6047 181.495 45.518L191.921 29.476C191.955 29.4067 192.016 29.3287 192.103 29.242C192.189 29.138 192.302 29.0427 192.441 28.956C192.597 28.852 192.779 28.8 192.987 28.8H195.483C195.725 28.8 195.933 28.8693 196.107 29.008C196.297 29.1293 196.453 29.294 196.575 29.502L206.975 45.544C207.061 45.6827 207.122 45.856 207.157 46.064C207.157 46.3933 207.018 46.662 206.741 46.87C206.515 46.9567 206.333 47 206.195 47H203.517C203.309 47 203.135 46.9567 202.997 46.87C202.841 46.7833 202.719 46.688 202.633 46.584C202.546 46.4627 202.485 46.3673 202.451 46.298L201.905 45.44L201.021 44.114L194.339 33.766C194.269 33.6967 194.2 33.6967 194.131 33.766L189.971 40.188L187.475 44.114L186.045 46.298C185.993 46.3847 185.923 46.48 185.837 46.584C185.75 46.688 185.637 46.7833 185.499 46.87C185.204 46.9567 185.022 47 184.953 47H182.275C182.136 47 181.954 46.9567 181.729 46.87C181.451 46.662 181.313 46.3933 181.313 46.064ZM226.841 45.7C226.477 45.4227 226.026 45.076 225.489 44.66C224.969 44.2267 224.406 43.7673 223.799 43.282C223.192 42.7793 222.56 42.2593 221.901 41.722C221.26 41.1847 220.627 40.656 220.003 40.136C219.258 39.5293 218.495 38.9053 217.715 38.264C216.935 37.6227 216.129 36.9727 215.297 36.314C215.228 36.2447 215.236 36.184 215.323 36.132L226.503 29.268C226.52 29.268 226.538 29.2593 226.555 29.242C226.78 29.0513 227.092 28.9127 227.491 28.826C227.526 28.8087 227.647 28.8 227.855 28.8H231.235C231.46 28.8 231.642 28.8607 231.781 28.982C231.937 29.1033 232.041 29.2507 232.093 29.424C232.145 29.5973 232.136 29.7793 232.067 29.97C232.015 30.1607 231.894 30.3167 231.703 30.438C230.732 31.0447 229.71 31.686 228.635 32.362C227.578 33.0207 226.581 33.6447 225.645 34.234C224.709 34.8233 223.903 35.326 223.227 35.742C222.551 36.158 222.126 36.418 221.953 36.522C221.866 36.574 221.858 36.6347 221.927 36.704L223.903 38.342C224.336 38.706 224.882 39.1653 225.541 39.72C226.217 40.2573 226.945 40.8467 227.725 41.488C228.505 42.1293 229.302 42.7967 230.117 43.49C230.949 44.166 231.729 44.816 232.457 45.44C232.613 45.5787 232.708 45.7433 232.743 45.934C232.778 46.1073 232.769 46.272 232.717 46.428C232.665 46.584 232.57 46.7227 232.431 46.844C232.292 46.948 232.119 47 231.911 47H228.765C228.592 47 228.453 46.974 228.349 46.922C228.228 46.8353 228.132 46.7747 228.063 46.74C228.011 46.688 227.907 46.5927 227.751 46.454L227.517 46.246C227.43 46.1767 227.326 46.0987 227.205 46.012C227.101 45.9253 226.98 45.8213 226.841 45.7ZM213.503 28.8C213.624 28.8 213.746 28.8173 213.867 28.852C214.006 28.8867 214.127 28.9647 214.231 29.086C214.352 29.2073 214.43 29.3373 214.465 29.476C214.5 29.5973 214.517 29.71 214.517 29.814V36.964V45.986C214.517 46.09 214.5 46.2113 214.465 46.35C214.43 46.4713 214.352 46.5927 214.231 46.714C214.127 46.8353 214.006 46.9133 213.867 46.948C213.746 46.9827 213.624 47 213.503 47H211.215C210.92 47 210.678 46.9047 210.487 46.714C210.296 46.5233 210.201 46.2807 210.201 45.986V29.814C210.201 29.5193 210.296 29.2767 210.487 29.086C210.678 28.8953 210.92 28.8 211.215 28.8H213.503ZM253.136 29.424C253.344 28.9387 253.69 28.696 254.176 28.696H256.204C256.377 28.696 256.524 28.7307 256.646 28.8C256.784 28.852 256.888 28.9387 256.958 29.06C257.044 29.1987 257.088 29.3287 257.088 29.45C257.122 29.6407 257.096 29.8053 257.01 29.944L253.604 38.03C253.188 39.07 252.772 40.0667 252.356 41.02C251.957 41.956 251.593 42.814 251.264 43.594C251.073 44.0447 250.891 44.478 250.718 44.894C250.544 45.31 250.371 45.7173 250.198 46.116C250.111 46.3413 249.972 46.5233 249.782 46.662C249.608 46.8007 249.4 46.87 249.158 46.87H247.13C246.956 46.87 246.8 46.8267 246.662 46.74C246.506 46.6187 246.41 46.532 246.376 46.48C246.324 46.428 246.289 46.3673 246.272 46.298C246.254 46.2287 246.237 46.168 246.22 46.116C246.202 45.9427 246.228 45.7693 246.298 45.596L253.136 29.424ZM258.352 41.02C258.404 40.916 258.473 40.838 258.56 40.786C258.647 40.7167 258.733 40.6647 258.82 40.63L261.992 39.278C261.697 39.1567 261.42 39.044 261.16 38.94C260.9 38.8187 260.649 38.706 260.406 38.602C260.215 38.5153 260.025 38.4373 259.834 38.368C259.643 38.2987 259.479 38.2293 259.34 38.16L258.846 37.952C258.586 37.8653 258.421 37.7353 258.352 37.562C258.265 37.4407 258.205 37.3193 258.17 37.198C258.153 37.0593 258.144 36.9467 258.144 36.86V34.806C258.144 34.6327 258.179 34.4853 258.248 34.364C258.283 34.312 258.317 34.26 258.352 34.208C258.404 34.156 258.465 34.1127 258.534 34.078C258.603 34.026 258.664 33.9913 258.716 33.974C258.785 33.9567 258.855 33.9393 258.924 33.922C259.132 33.922 259.297 33.9567 259.418 34.026L263.032 35.612C263.483 35.8027 263.925 36.002 264.358 36.21C264.791 36.4007 265.181 36.5653 265.528 36.704C265.719 36.7907 265.909 36.8773 266.1 36.964C266.291 37.0507 266.481 37.1287 266.672 37.198C266.845 37.2673 267.01 37.406 267.166 37.614C267.305 37.822 267.383 38.0733 267.4 38.368C267.435 38.6627 267.452 38.9747 267.452 39.304C267.452 39.616 267.435 39.9193 267.4 40.214C267.383 40.5087 267.305 40.76 267.166 40.968C267.027 41.176 266.854 41.3233 266.646 41.41L259.418 44.556C259.297 44.6253 259.132 44.66 258.924 44.66C258.855 44.6427 258.785 44.6253 258.716 44.608C258.664 44.5907 258.603 44.556 258.534 44.504C258.465 44.4693 258.404 44.426 258.352 44.374C258.317 44.322 258.283 44.27 258.248 44.218C258.179 44.0967 258.144 43.9493 258.144 43.776V41.722C258.144 41.6353 258.153 41.5313 258.17 41.41C258.205 41.2713 258.265 41.1413 258.352 41.02Z" fill="white"/>
</svg>
